<svg width="128" height="128" viewBox="0 0 128 128" fill="none" xmlns="http://www.w3.org/2000/svg">
<style>
rect {
  fill: #fff;
}
@media (prefers-color-scheme: dark) {
  rect {
    fill: #000;
  }
}
</style>
<rect width="128" height="128"/>
<path d="M41.1918 50.8182L40.6037 68.9844H35.3494L34.7614 50.8182H41.1918ZM37.9702 77.3707C37.0582 77.3707 36.2741 77.0469 35.6179 76.3991C34.9702 75.7514 34.6463 74.9673 34.6463 74.0469C34.6463 73.1435 34.9702 72.3722 35.6179 71.733C36.2741 71.0852 37.0582 70.7614 37.9702 70.7614C38.848 70.7614 39.6193 71.0852 40.2841 71.733C40.9574 72.3722 41.294 73.1435 41.294 74.0469C41.294 74.6605 41.1364 75.2187 40.821 75.7216C40.5142 76.2244 40.1094 76.625 39.6065 76.9233C39.1122 77.2216 38.5668 77.3707 37.9702 77.3707ZM56.8523 77.6392C54.5682 77.6392 52.5994 77.098 50.946 76.0156C49.2926 74.9247 48.0185 73.3608 47.1236 71.3239C46.2287 69.2784 45.7855 66.8196 45.794 63.9474C45.8026 61.0753 46.25 58.6378 47.1364 56.6349C48.0313 54.6236 49.3011 53.0937 50.946 52.0455C52.5994 50.9886 54.5682 50.4602 56.8523 50.4602C59.1364 50.4602 61.1051 50.9886 62.7585 52.0455C64.4205 53.0937 65.6989 54.6236 66.5938 56.6349C67.4886 58.6463 67.9318 61.0838 67.9233 63.9474C67.9233 66.8281 67.4759 69.2912 66.581 71.3366C65.6861 73.3821 64.4119 74.946 62.7585 76.0284C61.1136 77.1023 59.1449 77.6392 56.8523 77.6392ZM56.8523 72.4616C58.2159 72.4616 59.3196 71.767 60.1634 70.3778C61.0071 68.9801 61.4247 66.8366 61.4162 63.9474C61.4162 62.0554 61.2244 60.4957 60.8409 59.2685C60.4574 58.0327 59.9247 57.1122 59.2429 56.5071C58.5611 55.902 57.7642 55.5994 56.8523 55.5994C55.4972 55.5994 54.402 56.2855 53.5668 57.6577C52.7315 59.0213 52.3097 61.1179 52.3011 63.9474C52.2926 65.8651 52.4759 67.4545 52.8509 68.7159C53.2344 69.9773 53.7713 70.919 54.4616 71.5412C55.152 72.1548 55.9489 72.4616 56.8523 72.4616ZM82.3757 77.6392C80.0916 77.6392 78.1229 77.098 76.4695 76.0156C74.8161 74.9247 73.5419 73.3608 72.647 71.3239C71.7521 69.2784 71.3089 66.8196 71.3175 63.9474C71.326 61.0753 71.7734 58.6378 72.6598 56.6349C73.5547 54.6236 74.8246 53.0937 76.4695 52.0455C78.1229 50.9886 80.0916 50.4602 82.3757 50.4602C84.6598 50.4602 86.6286 50.9886 88.282 52.0455C89.9439 53.0937 91.2223 54.6236 92.1172 56.6349C93.0121 58.6463 93.4553 61.0838 93.4467 63.9474C93.4467 66.8281 92.9993 69.2912 92.1044 71.3366C91.2095 73.3821 89.9354 74.946 88.282 76.0284C86.6371 77.1023 84.6683 77.6392 82.3757 77.6392ZM82.3757 72.4616C83.7393 72.4616 84.843 71.767 85.6868 70.3778C86.5305 68.9801 86.9482 66.8366 86.9396 63.9474C86.9396 62.0554 86.7479 60.4957 86.3643 59.2685C85.9808 58.0327 85.4482 57.1122 84.7663 56.5071C84.0845 55.902 83.2876 55.5994 82.3757 55.5994C81.0206 55.5994 79.9254 56.2855 79.0902 57.6577C78.255 59.0213 77.8331 61.1179 77.8246 63.9474C77.8161 65.8651 77.9993 67.4545 78.3743 68.7159C78.7578 69.9773 79.2947 70.919 79.9851 71.5412C80.6754 72.1548 81.4723 72.4616 82.3757 72.4616Z" fill="#D6AB69"/>
</svg>
